# xmcd
#
# Track frame offsets:
#	150
#	23331
#	63576
#	98231
#	118845
#	180562
#
# Disc length: 2801 seconds
#
# Revision: 1
# Processed by: cddbd v1.5.1PL2 Copyright (c) Steve Scherf et al.
# Submitted via: audiograbber 1.83.01
#
DISCID=460aef06
DTITLE=Stonehenge - A musical journey into the past
DYEAR=2002
DGENRE=Ethnic
TTITLE0=Preamble - Dawn
TTITLE1=Journey of the stones
TTITLE2=Song of the stones
TTITLE3=Paen
TTITLE4=Dance Trance
TTITLE5=Night
EXTD=
EXTT0=
EXTT1=
EXTT2=
EXTT3=
EXTT4=
EXTT5=
PLAYORDER=
